<?xml version="1.0" encoding="UTF-8"?>
<svg width="43px" height="43px" viewBox="0 0 43 43" version="1.1" xmlns="http://www.w3.org/2000/svg" xmlns:xlink="http://www.w3.org/1999/xlink">
    <title>Plus</title>
    <g id="Page-1" stroke="none" stroke-width="1" fill="none" fill-rule="evenodd">
        <g id="Desktop-HD-Copy" transform="translate(-187.000000, -759.000000)" fill="#D8D8D8" fill-rule="nonzero">
            <g id="Plus" transform="translate(187.000000, 759.000000)">
                <path d="M21.5,0 C9.62587788,0 0,9.62587788 0,21.5 C0,33.3741221 9.62587788,43 21.5,43 C33.3741221,43 43,33.3741221 43,21.5 C43,15.7978455 40.7348279,10.3292363 36.7027958,6.2972042 C32.6707637,2.26517207 27.2021545,0 21.5,0 Z M29.3045211,22.1386371 L22.4673474,22.1386371 L22.4673474,29.309217 L20.5326526,29.309217 L20.5326526,22.1386371 L13.6954789,22.1386371 L13.6954789,20.3236868 L20.5326526,20.3236868 L20.5326526,13.2141531 L22.4673474,13.2141531 L22.4673474,20.3236868 L29.3045211,20.3236868 L29.3045211,22.1386371 Z" id="Shape"></path>
            </g>
        </g>
    </g>
</svg>